<?xml version="1.0" encoding="UTF-8"?>
<svg version="1.1" xmlns="http://www.w3.org/2000/svg" width="1024" height="1024">
<path d="M0 0 C337.92 0 675.84 0 1024 0 C1024 337.92 1024 675.84 1024 1024 C686.08 1024 348.16 1024 0 1024 C0 686.08 0 348.16 0 0 Z " fill="#F4ECE3" transform="translate(0,0)"/>
<path d="M0 0 C0.66 0.33 1.32 0.66 2 1 C2.061875 0.443125 2.12375 -0.11375 2.1875 -0.6875 C3.36566122 -4.04072809 5.37837719 -5.60149402 8 -8 C8.62648438 -8.58394531 9.25296875 -9.16789063 9.8984375 -9.76953125 C16.75981301 -16.01312007 21.84513055 -18.49221519 31.125 -18.25 C31.92292969 -18.24484375 32.72085937 -18.2396875 33.54296875 -18.234375 C37.21022026 -18.18539668 40.45178899 -17.99218677 44 -17 C44 -16.34 44 -15.68 44 -15 C44.515625 -14.9175 45.03125 -14.835 45.5625 -14.75 C53.16627812 -12.41037596 58.53695835 -7.48111266 63 -1 C65.76580648 4.53926176 66.55263823 9.73211862 66.5 15.875 C66.49355469 16.66583984 66.48710938 17.45667969 66.48046875 18.27148438 C66.13468703 29.34559903 60.36172398 37.02357939 53 45 C51.69523789 46.03700223 50.37010058 47.05099938 49 48 C49.63558597 51.33682633 50.89833695 53.60750983 52.75 56.4375 C55.82424319 61.41659723 57.85135885 66.5036464 59.8515625 71.98828125 C60.77321587 74.40527018 61.75559476 76.55763771 63 78.8125 C67.97697417 88.38360417 70.32950943 99.58514177 72.32421875 110.109375 C72.85643852 112.91354336 72.85643852 112.91354336 73.99609375 114.9375 C75.45773323 117.94040135 75.81852315 120.96351318 76.375 124.25 C77.3386817 129.74392133 78.49857101 135.10542701 79.9375 140.5 C83.18724877 152.90671474 84.95454599 165.67019964 86.77734375 178.3515625 C86.89803223 179.19041992 87.0187207 180.02927734 87.14306641 180.89355469 C87.37950143 182.53727941 87.61486712 184.18115834 87.84912109 185.82519531 C88.6838492 191.4621723 89.86157524 196.96011331 91.1875 202.5 C92.83978939 209.41424208 93.50377051 215.86325107 93 223 C93.66 223 94.32 223 95 223 C95.09796875 223.69222656 95.1959375 224.38445312 95.296875 225.09765625 C96.17793104 230.86249705 97.3225346 236.43939698 98.875 242.0625 C102.18161874 254.07983824 104.76718717 266.30811307 106.5078125 278.65234375 C107.0124416 281.05934446 107.89769839 282.81744281 109 285 C109.34450169 287.00437347 109.4979362 288.97358339 109.65625 291 C109.97499973 293.43207071 109.97499973 293.43207071 112 297 C143.68 297.33 175.36 297.66 208 298 C208 298.66 208 299.32 208 300 C208.7425 300.0825 209.485 300.165 210.25 300.25 C213.70577505 301.19248411 214.8163077 302.16120001 217 305 C220.87025723 312.67394983 220.5076911 320.60008308 220.4375 329 C220.43479095 329.75465546 220.43208191 330.50931091 220.42929077 331.28683472 C220.36138846 343.79556475 219.20846212 355.75626757 216.625 368.01708984 C215.93213116 371.32391462 215.29187092 374.63874299 214.65625 377.95703125 C213.80303053 382.36774208 212.9434604 386.77677617 212.05078125 391.1796875 C211.87200439 392.06382324 211.69322754 392.94795898 211.5090332 393.85888672 C211 396 211 396 210 398 C209.34 398 208.68 398 208 398 C207.88398437 398.67289063 207.76796875 399.34578125 207.6484375 400.0390625 C206.87522734 403.56974504 205.77865376 406.95524065 204.625 410.375 C204.41617188 411.00921875 204.20734375 411.6434375 203.9921875 412.296875 C202.04650586 418.11019209 199.84711027 423.7516102 196.75 429.0625 C193.79914419 434.23991066 191.232328 439.59439569 188.6484375 444.9609375 C187.1981677 447.63465765 186.08720589 448.92541365 184 451 C183.23023518 452.12284357 182.49791305 453.27208045 181.80078125 454.44140625 C181.20015869 455.43309814 181.20015869 455.43309814 180.58740234 456.44482422 C180.16668457 457.14365723 179.7459668 457.84249023 179.3125 458.5625 C175.29293094 465.1150286 170.95674976 471.11572966 166 477 C164.60003548 478.74669689 163.2042034 480.49671385 161.8125 482.25 C157.40480228 487.75101336 153.0101455 493.02669381 148 498 C147.20980469 498.80179688 146.41960937 499.60359375 145.60546875 500.4296875 C141.21212671 504.87271192 136.78518227 509.19095866 132.02734375 513.2421875 C130.61633073 514.46560919 129.23517936 515.72397387 127.87890625 517.0078125 C117.11107484 527.1401058 104.55296945 535.25808051 92 543 C90.48212891 543.96679688 90.48212891 543.96679688 88.93359375 544.953125 C80.48238875 550.28216401 71.52947766 555.82350745 62 559 C61.67 559.66 61.34 560.32 61 561 C62.18128479 560.99555878 63.36256958 560.99111755 64.57965088 560.98654175 C75.7037989 560.94602536 86.82793197 560.91602986 97.95213699 560.89637566 C103.67141033 560.88593163 109.39062418 560.87176104 115.10986328 560.84912109 C120.62764828 560.82741492 126.14537599 560.81543604 131.66320038 560.81024551 C133.76996513 560.80654576 135.87672669 560.79932123 137.9834671 560.78853989 C140.93077915 560.77405465 143.87785348 560.77202083 146.82519531 560.77294922 C147.69913437 560.76575867 148.57307343 560.75856812 149.47349548 560.75115967 C150.27833878 560.753909 151.08318207 560.75665833 151.91241455 560.75949097 C152.60929005 560.75764738 153.30616554 560.75580379 154.02415848 560.75390434 C156.41543668 561.0517436 157.96076944 561.721102 160 563 C162 566 162 566 161.9375 569.4375 C160.793231 573.78572221 159.77545624 574.6597176 156 577 C153.3176037 577.38432459 151.05010192 577.53880988 148.37370396 577.50336456 C147.60996416 577.50917833 146.84622436 577.51499209 146.05934092 577.52098203 C143.49102919 577.53562134 140.92366727 577.52167889 138.35536194 577.50793457 C136.49915767 577.51254194 134.64295705 577.51889376 132.78676409 577.52684355 C127.67883743 577.54358259 122.5712087 577.5352697 117.4632808 577.52289867 C111.95738754 577.51386915 106.45154644 577.52780752 100.94566345 577.53881836 C90.15651342 577.55663096 79.36747453 577.55275128 68.57832009 577.5411678 C59.81131804 577.53214406 51.0443472 577.53090488 42.27734184 577.53526306 C41.03083907 577.53587599 39.7843363 577.53648893 38.50006072 577.53712043 C35.96801277 577.5383993 33.43596482 577.53969615 30.90391689 577.5410108 C7.82255354 577.55209919 -15.25875727 577.54058839 -38.34010787 577.51964041 C-59.41386419 577.5006599 -80.48752383 577.50235409 -101.5612793 577.52148438 C-125.2321935 577.54290042 -148.90306512 577.55132372 -172.57399088 577.53903532 C-175.09716927 577.53776109 -177.62034767 577.53650361 -180.14352608 577.53526306 C-181.38505649 577.53464596 -182.6265869 577.53402886 -183.90573944 577.53339306 C-192.66393304 577.52993621 -201.42209239 577.53577575 -210.18028069 577.54518127 C-220.8512188 577.55638871 -231.52203918 577.55338769 -242.19296377 577.5320583 C-247.63974945 577.5215307 -253.0863387 577.51745521 -258.53312302 577.53065491 C-263.5165642 577.54254926 -268.49962635 577.53606504 -273.48303301 577.5147447 C-275.28849271 577.51026606 -277.09398425 577.51257308 -278.89942359 577.52224785 C-281.34936173 577.53437205 -283.79799339 577.52197811 -286.24786282 577.50336456 C-286.95262695 577.51272923 -287.65739107 577.52209389 -288.38351169 577.53174233 C-293.53317691 577.45327922 -296.07151428 576.07430193 -300 573 C-299.91253716 571.56138706 -299.80434652 570.12402492 -299.6875 568.6875 C-299.60048828 567.48673828 -299.60048828 567.48673828 -299.51171875 566.26171875 C-298.89557234 563.53844567 -298.15567559 562.73329241 -296 561 C-294.11597157 560.61523914 -294.11597157 560.61523914 -291.95674133 560.60127258 C-291.1364444 560.58873444 -290.31614746 560.57619629 -289.47099304 560.5632782 C-288.57475723 560.56471329 -287.67852142 560.56614838 -286.75512695 560.56762695 C-285.80859253 560.5574353 -284.86205811 560.54724365 -283.88684082 560.53674316 C-280.75392818 560.50651582 -277.6213208 560.49733228 -274.48828125 560.48828125 C-272.31779455 560.4714418 -270.14731766 560.45329257 -267.97685242 560.43388367 C-262.26076315 560.38629794 -256.54471359 560.35654399 -250.82849121 560.33044434 C-244.99690914 560.30068207 -239.165464 560.2541369 -233.33398438 560.20898438 C-221.88939442 560.1228537 -210.44477636 560.05555184 -199 560 C-199.89928223 559.66299072 -200.79856445 559.32598145 -201.72509766 558.97875977 C-202.90120605 558.53330811 -204.07731445 558.08785645 -205.2890625 557.62890625 C-206.45646973 557.18877197 -207.62387695 556.7486377 -208.82666016 556.29516602 C-212.24664533 554.89933424 -215.03211456 553.19058211 -218 551 C-219.66058141 550.05574782 -221.32136235 549.11183867 -222.984375 548.171875 C-237.51288656 539.72506596 -251.3482504 530.05290212 -264 519 C-264.87700562 518.25218262 -264.87700562 518.25218262 -265.77172852 517.48925781 C-278.52154423 506.53121322 -290.85492801 494.43033971 -301 481 C-301.76699219 480.03835938 -302.53398437 479.07671875 -303.32421875 478.0859375 C-309.96898825 469.72078825 -315.86900151 460.89749187 -321.71289062 451.96069336 C-322.87739104 450.186774 -324.05674102 448.42401549 -325.2421875 446.6640625 C-330 439.45333333 -330 439.45333333 -330 435 C-330.66 435 -331.32 435 -332 435 C-332.95624572 432.84844713 -333.91168384 430.69658395 -334.86328125 428.54296875 C-335.55423885 426.99721824 -336.25689252 425.45653416 -336.98046875 423.92578125 C-340.2884542 416.837241 -342.5907404 409.42663831 -345 402 C-345.7274176 399.83274549 -346.45643227 397.66602596 -347.1875 395.5 C-348.23395913 392.36902791 -349.24251634 389.24354574 -350.125 386.0625 C-350.88954382 383.1086835 -350.88954382 383.1086835 -351.9609375 380.86328125 C-353.3573038 377.01539967 -353.89664474 373.16283905 -354.5 369.125 C-355.44809466 362.83360608 -355.44809466 362.83360608 -357.03125 356.6796875 C-359.65247969 346.72324249 -359.26291032 335.98073059 -359.375 325.75 C-359.41238281 324.4403125 -359.44976562 323.130625 -359.48828125 321.78125 C-359.55732642 314.20162434 -359.19085448 308.78269773 -354 303 C-348.07000929 297.26129931 -340.41053332 297.72817205 -332.6953125 297.8046875 C-331.61619598 297.8075174 -330.53707947 297.81034729 -329.42526245 297.81326294 C-325.99172701 297.8244234 -322.55845609 297.8495207 -319.125 297.875 C-316.79167044 297.88503513 -314.45833678 297.89416005 -312.125 297.90234375 C-306.416577 297.92434921 -300.70830741 297.95778573 -295 298 C-295 297.01 -295 296.02 -295 295 C-295.66 295 -296.32 295 -297 295 C-300 289.25 -300 289.25 -300 287 C-300.66 287 -301.32 287 -302 287 C-303.91491747 283.23619669 -305.78250286 279.51064547 -307.4375 275.625 C-308.70554852 272.68312744 -310.05498051 269.85553105 -311.5 267 C-313.49625543 263.04932684 -315.3033207 259.08745469 -317 255 C-317.495 253.88625 -317.99 252.7725 -318.5 251.625 C-321.92002684 243.35993514 -325.58649525 234.0906764 -325 225 C-325.66 225 -326.32 225 -327 225 C-328.19910302 220.68322912 -329.11133284 216.59113904 -329.5 212.125 C-330.06616669 205.64884772 -331.3291499 199.38575707 -333.0625 193.125 C-336.09311965 180.98195873 -335.28022643 167.74586177 -335.3125 155.3125 C-335.31545074 154.31432251 -335.31840149 153.31614502 -335.32144165 152.28771973 C-335.33342911 134.46112188 -334.70824807 116.91638126 -328.64648438 99.95629883 C-327.78335566 97.34442179 -327.34916133 94.72345835 -327 92 C-326.34 92 -325.68 92 -325 92 C-324.89042969 91.33613281 -324.78085937 90.67226563 -324.66796875 89.98828125 C-323.01176471 80.76470588 -323.01176471 80.76470588 -320 77 C-319.34 77 -318.68 77 -318 77 C-317.62488281 75.89978516 -317.62488281 75.89978516 -317.2421875 74.77734375 C-313.11752129 65.55521269 -303.89393435 60.73919162 -295 57 C-287.04171508 54.34723836 -275.6278073 54.16167586 -267.8828125 57.50390625 C-264.33117074 59.34731893 -261.18661451 61.58501335 -258 64 C-257.13890625 64.61230469 -256.2778125 65.22460938 -255.390625 65.85546875 C-245.73717852 73.45188888 -240.8591937 85.10385482 -239 97 C-238.54214658 100.93036824 -238.1855437 104.86967341 -237.83422852 108.81079102 C-236.83275322 119.63893003 -234.93672111 130.30593123 -233 141 C-232.83741699 141.91410645 -232.67483398 142.82821289 -232.50732422 143.77001953 C-229.61941481 160.27814664 -229.61941481 160.27814664 -224 176 C-223.01 176.33 -222.02 176.66 -221 177 C-220.34 169.08 -219.68 161.16 -219 153 C-218.34 153 -217.68 153 -217 153 C-216.96261719 151.92105469 -216.92523438 150.84210938 -216.88671875 149.73046875 C-215.66554233 120.04417189 -215.66554233 120.04417189 -209.90625 109.02734375 C-208.43572372 105.73767505 -208.0551299 102.29160256 -207.484375 98.75390625 C-206.17740463 91.32314727 -203.52377201 84.64293721 -200.3125 77.84765625 C-198.97852761 74.95341259 -197.79909584 72.02477469 -196.625 69.0625 C-194.36770051 63.5382463 -191.50695452 58.55594191 -188.35546875 53.49609375 C-186.76139337 51.03400352 -186.76139337 51.03400352 -187 48 C-188.56949581 46.40435995 -188.56949581 46.40435995 -190.625 44.875 C-195.11425086 41.10879662 -198.07581949 37.04671652 -201 32 C-201.61875 30.96875 -202.2375 29.9375 -202.875 28.875 C-206.06273826 20.78304903 -205.12356982 8.07963394 -202 0 C-197.16911588 -8.21651759 -189.87525883 -14.87492605 -180.60546875 -17.5234375 C-170.30399259 -19.40766552 -161.01766824 -18.46635534 -152 -13 C-141.74309891 -5.14229978 -141.74309891 -5.14229978 -140.19921875 -0.69140625 C-140.10060547 0.14583984 -140.10060547 0.14583984 -140 1 C-138.39528272 0.04258894 -136.79124671 -0.91596405 -135.1875 -1.875 C-134.29417969 -2.40867188 -133.40085937 -2.94234375 -132.48046875 -3.4921875 C-130.62705276 -4.61883092 -128.80470083 -5.79686611 -127 -7 C-124.3125 -7.125 -124.3125 -7.125 -122 -7 C-122 -7.66 -122 -8.32 -122 -9 C-117.85999434 -11.33538781 -114.05744371 -12.58005232 -109.44140625 -13.47265625 C-106.8633413 -13.99418682 -106.8633413 -13.99418682 -103.859375 -14.95703125 C-70.09662292 -24.08117579 -29.45735922 -19.40645768 0 0 Z " fill="#453632" transform="translate(580,231)"/>
<path d="M0 0 C1.02113361 -0.00199105 2.04226721 -0.0039821 3.09434426 -0.00603348 C4.22467548 -0.00312064 5.3550067 -0.0002078 6.51959038 0.00279331 C8.31074959 0.00151167 8.31074959 0.00151167 10.13809383 0.00020415 C13.46285646 -0.00116256 16.78756077 0.00197934 20.11231637 0.00698221 C23.69377344 0.01128769 27.27522861 0.00984021 30.85668755 0.00907993 C37.06522997 0.00855476 43.27376192 0.01170086 49.48230171 0.01731777 C58.45888456 0.02543368 67.43546232 0.02804809 76.41204844 0.02930576 C90.97482531 0.03149614 105.53759658 0.03815584 120.10037041 0.04760838 C134.24945866 0.05678286 148.3985454 0.06386352 162.54763603 0.06811619 C163.41931329 0.06837891 164.29099056 0.06864164 165.18908228 0.06891232 C169.56188981 0.07021733 173.93469735 0.07148104 178.30750489 0.07272422 C214.60288459 0.08309639 250.89825792 0.10071432 287.19363213 0.12304783 C287.86958528 1.53530709 288.53403272 2.95307688 289.19363213 4.37304783 C289.56488213 5.16195408 289.93613213 5.95086033 290.31863213 6.76367283 C291.19363213 9.12304783 291.19363213 9.12304783 291.19363213 13.12304783 C291.85363213 13.12304783 292.51363213 13.12304783 293.19363213 13.12304783 C294.52566338 14.91601658 294.52566338 14.91601658 296.00613213 17.31054783 C301.42251514 25.70528257 306.94180894 30.29664292 316.63113213 32.55273533 C330.87111406 34.83238156 342.93558621 32.92208119 355.19363213 25.12304783 C357.93181808 23.04037835 360.58220854 20.89664814 363.19753838 18.66211033 C365.19363213 17.12304783 365.19363213 17.12304783 367.19363213 17.12304783 C367.19363213 16.46304783 367.19363213 15.80304783 367.19363213 15.12304783 C368.84363213 14.46304783 370.49363213 13.80304783 372.19363213 13.12304783 C372.19363213 12.46304783 372.19363213 11.80304783 372.19363213 11.12304783 C374.20535088 9.46679783 374.20535088 9.46679783 376.88113213 7.62304783 C377.75124931 7.01461033 378.6213665 6.40617283 379.51785088 5.77929783 C382.04991527 4.21200542 384.40453911 3.14205504 387.19363213 2.12304783 C387.94164463 1.77945571 388.68965714 1.43586359 389.46033669 1.08185959 C392.60570957 -0.02150468 395.07606828 -0.12586191 398.40682793 -0.12419033 C399.65755089 -0.12838482 400.90827385 -0.13257931 402.19689751 -0.1369009 C403.5750416 -0.13141814 404.95318491 -0.12573518 406.33132744 -0.11987209 C407.78855283 -0.12094549 409.24577781 -0.12288502 410.70300102 -0.12562466 C414.65310164 -0.13046529 418.60308901 -0.12282834 422.55317593 -0.11267161 C426.68468979 -0.10388385 430.81620018 -0.10564866 434.94772148 -0.10603237 C441.88127347 -0.10509642 448.81478164 -0.09641953 455.74831963 -0.08276272 C463.7742133 -0.06701316 471.80005907 -0.0617655 479.82596707 -0.06249827 C487.54082166 -0.0631076 495.25566059 -0.05801249 502.97051048 -0.04970646 C506.2575855 -0.04616837 509.54465497 -0.04434247 512.8317318 -0.04381275 C516.69603174 -0.04281163 520.56029113 -0.03673405 524.42457771 -0.02664661 C525.84643493 -0.02371497 527.26829681 -0.02249758 528.69015694 -0.02307415 C530.62289929 -0.0235615 532.55563993 -0.01731556 534.4883709 -0.01066494 C536.11435141 -0.00815117 536.11435141 -0.00815117 537.77318001 -0.00558662 C540.19363213 0.12304783 540.19363213 0.12304783 541.19363213 1.12304783 C542.09693655 18.58114302 541.86507325 38.19505472 537.19363213 55.12304783 C536.53363213 55.12304783 535.87363213 55.12304783 535.19363213 55.12304783 C535.19363213 57.76304783 535.19363213 60.40304783 535.19363213 63.12304783 C534.53363213 63.12304783 533.87363213 63.12304783 533.19363213 63.12304783 C533.11113213 64.13367283 533.02863213 65.14429783 532.94363213 66.18554783 C532.12134914 72.97245066 530.03261753 79.55402088 528.19363213 86.12304783 C527.53363213 86.12304783 526.87363213 86.12304783 526.19363213 86.12304783 C526.08406181 86.78949314 525.9744915 87.45593845 525.86160088 88.14257908 C523.75349387 97.5489279 519.83842273 106.74934005 514.62722588 114.83007908 C513.13393134 117.21853655 511.91073391 119.64635466 510.69363213 122.18554783 C508.65004376 126.37820009 506.28128415 130.18867343 503.62331963 134.01757908 C502.6400199 135.46566256 501.71245357 136.95266602 500.83425713 138.46679783 C498.79944026 141.76126322 496.46844851 144.77915702 494.06863213 147.81054783 C493.58072197 148.42849216 493.09281181 149.0464365 492.5901165 149.68310642 C488.33348265 155.02887247 483.83653824 160.10965515 479.19363213 165.12304783 C478.34156181 166.06664158 477.4894915 167.01023533 476.61160088 167.98242283 C456.78865182 189.92874775 433.35655296 210.67503286 406.19363213 223.12304783 C405.53363213 223.12304783 404.87363213 223.12304783 404.19363213 223.12304783 C404.19363213 223.78304783 404.19363213 224.44304783 404.19363213 225.12304783 C379.10020708 238.28014096 352.46364978 245.97495347 324.18191338 246.66992283 C323.37444475 246.69061581 322.56697613 246.71130878 321.73503876 246.73262882 C299.05753683 247.30065699 276.37439541 247.34578976 253.69094658 247.3632822 C247.54604027 247.36884022 241.40134733 247.39310898 235.25650883 247.42125416 C230.44257306 247.43996181 225.62868918 247.44508963 220.81472015 247.44661808 C218.54844065 247.44960736 216.2821612 247.45750633 214.01591873 247.47080326 C182.29689864 247.64425495 182.29689864 247.64425495 172.19363213 242.12304783 C170.16201943 241.62202681 168.11855568 241.16791169 166.06863213 240.74804783 C154.75060541 238.20777961 144.61868006 233.07147058 134.19363213 228.12304783 C134.19363213 227.46304783 134.19363213 226.80304783 134.19363213 226.12304783 C133.40988213 225.97867283 132.62613213 225.83429783 131.81863213 225.68554783 C129.19363213 225.12304783 129.19363213 225.12304783 127.19363213 224.12304783 C127.19363213 223.46304783 127.19363213 222.80304783 127.19363213 222.12304783 C126.39312431 221.92002048 126.39312431 221.92002048 125.57644463 221.71289158 C119.86938314 220.06396551 115.6198252 217.58857661 110.85769463 214.07226658 C108.05336844 212.02042088 105.17290679 210.13603763 102.25613213 208.24804783 C87.98823122 198.75433598 75.74756339 186.75376757 63.62252617 174.72717381 C62.21864852 173.33534944 60.81090975 171.94742309 59.40310478 170.55957127 C55.13470454 166.2966827 51.32061838 162.28378092 48.19363213 157.12304783 C47.43050713 156.35992283 46.66738213 155.59679783 45.88113213 154.81054783 C33.01613246 141.94554817 25.11849822 125.20372979 17.17019463 109.08398533 C15.93369488 106.58318575 14.65888725 104.12350361 13.34206963 101.66211033 C8.66515241 92.82335489 5.71649797 83.8830577 2.88845634 74.32153416 C2.19256183 72.11966132 1.39773102 69.98188683 0.56081963 67.83007908 C-0.50755389 64.93326061 -1.19977098 62.71459146 -1.43136787 59.68554783 C-1.40887806 56.3108049 -1.40887806 56.3108049 -2.80636787 55.12304783 C-6.58911745 37.25056471 -7.4010702 19.32093912 -6.80636787 1.12304783 C-4.34651077 -0.10688072 -2.7514211 -0.00117884 0 0 Z " fill="#FEFEFE" transform="translate(243.8063678741455,544.8769521713257)"/>
<path d="M0 0 C2.02350006 -0.00215215 4.04642323 -0.02020859 6.06982422 -0.03930664 C14.16378566 -0.05129178 21.76804315 0.53317746 29.69091797 2.18530273 C30.82956299 2.41237915 30.82956299 2.41237915 31.99121094 2.64404297 C39.22021728 4.15114135 45.9840205 5.67309566 52.05419922 10.04467773 C53.861884 11.39479681 53.861884 11.39479681 56.94091797 12.49780273 C70.49286938 18.03483029 84.61983748 29.80445638 93.69091797 41.18530273 C94.80466797 42.41893555 94.80466797 42.41893555 95.94091797 43.67749023 C103.64879917 52.37294372 109.1579158 62.01673603 114.69091797 72.18530273 C115.21685547 73.1353418 115.74279297 74.08538086 116.28466797 75.06420898 C122.17136252 86.21496693 125.87233104 98.39248896 129.44091797 110.43530273 C129.73466309 111.41644043 130.0284082 112.39757812 130.33105469 113.40844727 C132.87965101 122.21577115 134.86412906 130.97794441 134.69091797 140.18530273 C135.35091797 140.18530273 136.01091797 140.18530273 136.69091797 140.18530273 C136.85527344 141.27584961 136.85527344 141.27584961 137.02294922 142.38842773 C137.26078125 143.89663086 137.26078125 143.89663086 137.50341797 145.43530273 C137.72964844 146.89709961 137.72964844 146.89709961 137.96044922 148.38842773 C138.57715212 151.59396366 139.33095597 154.68348555 140.15966797 157.83764648 C141.73080996 164.02177613 142.59290719 170.17373545 143.37841797 176.49780273 C145.19526442 190.22980369 147.9318168 203.71251972 150.87329102 217.24316406 C152.81193815 226.25254467 154.34001058 235.17781634 155.29199219 244.34667969 C155.70305015 248.30204338 156.18679319 252.24089658 156.69091797 256.18530273 C157.35091797 256.18530273 158.01091797 256.18530273 158.69091797 256.18530273 C158.83190918 256.94149902 158.97290039 257.69769531 159.11816406 258.47680664 C159.76307364 261.92213438 160.41443229 265.3662127 161.06591797 268.81030273 C161.28763672 270.00010742 161.50935547 271.18991211 161.73779297 272.41577148 C161.95693359 273.56948242 162.17607422 274.72319336 162.40185547 275.91186523 C162.60085449 276.96970215 162.79985352 278.02753906 163.00488281 279.11743164 C163.64814447 282.23919977 163.64814447 282.23919977 164.76367188 285.39770508 C165.69081359 288.18498893 165.86220343 290.27344983 165.69091797 293.18530273 C162.63601422 290.22586473 159.82332787 287.17497569 157.06591797 283.93530273 C148.09649273 273.78568996 136.55277703 265.61074657 124.64404297 259.23999023 C123.10395451 258.40834247 121.60655178 257.49765588 120.12841797 256.56030273 C114.18462748 253.20739528 108.45415055 251.78916279 101.69091797 251.18530273 C101.69091797 250.52530273 101.69091797 249.86530273 101.69091797 249.18530273 C82.77223989 249.259984 82.77223989 249.259984 64.69091797 254.18530273 C63.84529297 254.51916992 62.99966797 254.85303711 62.12841797 255.19702148 C57.61816735 257.07381985 53.65008542 259.2984098 49.69091797 262.18530273 C49.01416016 262.64291992 48.33740234 263.10053711 47.64013672 263.57202148 C38.78244649 269.89020121 31.65500409 279.03724227 27.69091797 289.18530273 C26.70091797 295.12530273 26.70091797 295.12530273 25.69091797 301.18530273 C-32.38908203 301.18530273 -90.46908203 301.18530273 -150.30908203 301.18530273 C-149.14653786 290.72240521 -149.14653786 290.72240521 -148.37158203 285.56030273 C-148.21818359 284.51616211 -148.06478516 283.47202148 -147.90673828 282.39624023 C-147.30908203 279.18530273 -147.30908203 279.18530273 -146.36376953 276.12670898 C-144.6857213 270.47663104 -144.14986776 264.57354014 -143.37158203 258.74780273 C-142.30037474 250.93145477 -141.19418543 243.16726946 -139.62158203 235.43530273 C-138.33876074 229.01433625 -137.88342592 222.82232359 -137.71533203 216.29467773 C-137.51118821 213.08499466 -136.82205548 210.21224631 -135.96533203 207.11499023 C-133.42818456 197.44476468 -132.52466101 187.46378927 -131.30908203 177.56030273 C-130.8137727 173.56751618 -130.31378445 169.57535032 -129.80908203 165.58374023 C-129.68750732 164.62062927 -129.56593262 163.65751831 -129.44067383 162.66522217 C-128.2999106 153.79682343 -126.86540145 144.98926921 -125.30908203 136.18530273 C-124.64908203 136.18530273 -123.98908203 136.18530273 -123.30908203 136.18530273 C-123.33228516 135.57944336 -123.35548828 134.97358398 -123.37939453 134.34936523 C-123.51617194 127.99898549 -122.81419702 122.3433732 -121.30908203 116.18530273 C-121.05255859 115.09733398 -120.79603516 114.00936523 -120.53173828 112.88842773 C-113.50659574 84.78785757 -100.88540584 58.65799174 -81.30908203 37.18530273 C-80.64005859 36.42217773 -79.97103516 35.65905273 -79.28173828 34.87280273 C-74.31170816 29.5189485 -68.58896365 25.2193332 -62.74658203 20.87280273 C-61.94285156 20.27346924 -61.13912109 19.67413574 -60.31103516 19.05664062 C-47.36842757 9.62706445 -32.39847434 4.27608407 -16.66455078 1.65014648 C-10.94187947 0.52079676 -6.03462731 -0.00071687 0 0 Z " fill="#FDFDFD" transform="translate(506.30908203125,227.814697265625)"/>
<path d="M0 0 C19.2795303 -0.02332767 38.55905774 -0.04097853 57.83859921 -0.05181217 C66.78978382 -0.05697541 75.74095968 -0.06401863 84.69213867 -0.07543945 C92.49110388 -0.08538545 100.29006276 -0.09185322 108.08903414 -0.09408849 C112.22112186 -0.09539575 116.35319144 -0.09848251 120.48527336 -0.10573006 C124.37001526 -0.11248894 128.25473146 -0.11461723 132.13947868 -0.11310768 C133.56939839 -0.11338407 134.99931891 -0.11538998 136.42923355 -0.11920547 C138.37318051 -0.12414059 140.31714109 -0.12239805 142.26109314 -0.12025452 C143.35157424 -0.12117631 144.44205534 -0.1220981 145.56558132 -0.12304783 C148 0 148 0 149 1 C149.90330443 18.45809519 149.67144112 38.0720069 145 55 C144.34 55 143.68 55 143 55 C143 57.64 143 60.28 143 63 C142.34 63 141.68 63 141 63 C140.9175 64.010625 140.835 65.02125 140.75 66.0625 C139.92771702 72.84940284 137.83898541 79.43097306 136 86 C135.34 86 134.68 86 134 86 C133.89042969 86.66644531 133.78085937 87.33289063 133.66796875 88.01953125 C131.55986174 97.42588007 127.64479061 106.62629222 122.43359375 114.70703125 C120.94029922 117.09548872 119.71710178 119.52330683 118.5 122.0625 C116.45641163 126.25515226 114.08765202 130.0656256 111.4296875 133.89453125 C110.44638777 135.34261473 109.51882145 136.82961819 108.640625 138.34375 C106.60580814 141.63821539 104.27481639 144.65610919 101.875 147.6875 C101.38708984 148.30544434 100.89917969 148.92338867 100.39648438 149.56005859 C96.13985052 154.90582464 91.64290612 159.98660732 87 165 C86.14792969 165.94359375 85.29585937 166.8871875 84.41796875 167.859375 C64.59501969 189.80569993 41.16292083 210.55198504 14 223 C13.34 223 12.68 223 12 223 C12 223.66 12 224.32 12 225 C-9.68174338 236.36826545 -35.65521485 246.27425415 -60.4375 246.09765625 C-61.20304199 246.0962413 -61.96858398 246.09482635 -62.75732422 246.09336853 C-65.17159142 246.08782853 -67.58576144 246.07528779 -70 246.0625 C-71.64973823 246.05747723 -73.29947794 246.05291569 -74.94921875 246.04882812 C-78.96618255 246.03787886 -82.98307487 246.02065666 -87 246 C-87 245.34 -87 244.68 -87 244 C-82.61538462 241 -82.61538462 241 -80 241 C-80 240.34 -80 239.68 -80 239 C-77.98177083 238.609375 -75.96354167 238.21875 -73.9453125 237.828125 C-71.37191109 236.73262078 -71.16516952 235.47888655 -70 233 C-68.23046875 231.5859375 -68.23046875 231.5859375 -66.1875 230.375 C-65.47335937 229.94960938 -64.75921875 229.52421875 -64.0234375 229.0859375 C-62 228 -62 228 -59.3125 227 C-56.18587668 225.64794667 -54.35491116 223.41855741 -52 221 C-51.34 221 -50.68 221 -50 221 C-50 220.34 -50 219.68 -50 219 C-49.34 219 -48.68 219 -48 219 C-48 218.34 -48 217.68 -48 217 C-46.7315625 216.195625 -46.7315625 216.195625 -45.4375 215.375 C-42.05603444 213.21960856 -39.82616403 210.61118679 -37.265625 207.5546875 C-33.66213284 203.49143944 -29.76470993 199.72405672 -25.88671875 195.92431641 C-23.47978314 193.55110435 -21.22081537 191.29762072 -19.203125 188.578125 C-18.80609375 188.05734375 -18.4090625 187.5365625 -18 187 C-17.34 187 -16.68 187 -16 187 C-16 186.01 -16 185.02 -16 184 C-15.01 183.34 -14.02 182.68 -13 182 C-11.93753473 180.03247172 -10.92862192 178.03412421 -10 176 C-9.34 176 -8.68 176 -8 176 C-7.773125 175.34 -7.54625 174.68 -7.3125 174 C-5.6121185 170.11341372 -3.60376916 166.36320183 -1 163 C-0.34 163 0.32 163 1 163 C1.16822266 162.15695312 1.16822266 162.15695312 1.33984375 161.296875 C2.09057339 158.68486892 3.21167376 156.60528678 4.5625 154.25 C5.01753906 153.45078125 5.47257813 152.6515625 5.94140625 151.828125 C6.29074219 151.22484375 6.64007812 150.6215625 7 150 C7.66 150 8.32 150 9 150 C9.0825 149.46375 9.165 148.9275 9.25 148.375 C10 146 10 146 11.85546875 143.36328125 C14.63531096 139.00363801 16.13572234 134.52400068 17.79882812 129.65820312 C19.09357997 126.00748374 20.25555659 123.66945862 23 121 C24.02823256 118.20119901 24.02823256 118.20119901 24.8125 114.9375 C26.36662671 109.17949032 28.09460592 103.5263203 30 97.875 C30.25797363 97.102771 30.51594727 96.33054199 30.78173828 95.53491211 C31.87319566 92.28098314 32.98449958 89.04219846 34.16796875 85.8203125 C38.4245398 74.04543013 39.99705379 61.43653302 41 49 C41.66 49 42.32 49 43 49 C43.33 33.16 43.66 17.32 44 1 C29.48 1 14.96 1 0 1 C0 0.67 0 0.34 0 0 Z " fill="#E5DCD0" transform="translate(636,545)"/>
<path d="M0 0 C12.88344771 11.06348112 15.29113092 25.06942675 16.78277588 41.22476196 C17.15313771 45.2105483 17.5693398 49.19135607 17.9921875 53.171875 C18.07443573 53.94666702 18.15668396 54.72145905 18.24142456 55.51972961 C19.0693164 63.06062566 20.48247252 70.41331826 22.1171875 77.81640625 C23.51004958 84.14638774 24.25908133 90.56570633 25 97 C25.66 97 26.32 97 27 97 C27.54175619 98.62526856 28.08343574 100.25056271 28.62475586 101.87597656 C29.08644477 103.25989605 29.54951735 104.64335465 30.01391602 106.02636719 C30.97083965 108.88071454 31.91880886 111.7311046 32.7890625 114.61328125 C34.689756 120.87640983 37.76400321 126.33216131 41 132 C47.33997829 144.67995659 38.84108394 170.70518728 36.21875 183.7734375 C35.20147477 188.86696356 34.32320338 193.97271547 33.48681641 199.09863281 C32.72386033 203.64575917 31.84034828 208.16639285 30.9375 212.6875 C30.76412109 213.57888672 30.59074219 214.47027344 30.41210938 215.38867188 C30.24388672 216.23365234 30.07566406 217.07863281 29.90234375 217.94921875 C29.75273193 218.70549561 29.60312012 219.46177246 29.44897461 220.2409668 C29 222 29 222 28 223 C1.14511917 226.02098185 1.14511917 226.02098185 -7.44335938 221.79882812 C-10.89674422 218.79005221 -12.70698807 215.08233601 -14.296875 210.84228516 C-15.3101511 208.18736104 -16.75390551 205.8228626 -18.1875 203.375 C-18.64253906 202.49585938 -19.09757812 201.61671875 -19.56640625 200.7109375 C-21.14156786 197.73229403 -22.87473255 194.87887542 -24.625 192 C-28.83116945 184.83462284 -32.09921443 177.33226654 -33 169 C-33.66 169 -34.32 169 -35 169 C-38.47214811 158.45624357 -41.64911203 147.96840577 -44.04296875 137.125 C-44.74984114 133.92803594 -45.62833394 130.80482064 -46.5390625 127.66015625 C-48.02299873 122.2578676 -48.76378433 117.01560945 -49.1875 111.4375 C-49.26645508 110.43372314 -49.34541016 109.42994629 -49.42675781 108.39575195 C-51.0106486 85.54075649 -52.45601876 60.14594482 -46 38 C-45.70019375 36.12941402 -45.42834085 34.25408791 -45.1875 32.375 C-43.13414604 19.67285689 -38.03956931 8.36526646 -27.90625 0.1875 C-20.00820451 -4.73259391 -7.82686911 -4.63814466 0 0 Z " fill="#FBFBFB" transform="translate(311,306)"/>
<path d="M0 0 C1.09441406 -0.01160156 2.18882812 -0.02320313 3.31640625 -0.03515625 C10.76565626 -0.00870921 18.13762728 0.60232488 25.125 3.375 C26.115 4.86 26.115 4.86 27.125 6.375 C28.75371221 7.05363009 30.38362801 7.72951771 32.01953125 8.390625 C41.29776887 12.72850233 48.82128627 20.37087283 56.125 27.375 C57.53845703 28.68597656 57.53845703 28.68597656 58.98046875 30.0234375 C61.125 32.375 61.125 32.375 61.125 35.375 C60.46604736 35.40940186 59.80709473 35.44380371 59.12817383 35.47924805 C38.2043049 36.65762013 23.59867759 40.19868905 7.47265625 54.40649414 C-2.6330288 63.29992938 -13.13520555 71.62707183 -27.203125 70.984375 C-30.14105085 70.31432174 -31.59413767 69.29468456 -33.875 67.375 C-34.720625 67.045 -35.56625 66.715 -36.4375 66.375 C-38.92713037 65.35361318 -40.21608763 64.47046825 -41.875 62.375 C-41.875 61.715 -41.875 61.055 -41.875 60.375 C-42.535 60.375 -43.195 60.375 -43.875 60.375 C-48.80098791 51.22673675 -49.39429447 41.27157263 -47.1796875 31.21875 C-44.62507921 23.57639244 -40.23358096 15.50288787 -33.875 10.375 C-32.22295544 9.67288106 -30.55576231 9.00528587 -28.875 8.375 C-27.53709359 7.38112666 -26.20281878 6.3823108 -24.875 5.375 C-24.215 5.375 -23.555 5.375 -22.875 5.375 C-22.875 4.715 -22.875 4.055 -22.875 3.375 C-15.16718826 0.51792484 -8.17849509 -0.08608942 0 0 Z " fill="#FBFBFB" transform="translate(594.875,493.625)"/>
<path d="M0 0 C0.96873047 -0.020625 1.93746094 -0.04125 2.93554688 -0.0625 C9.12240843 -0.09596511 13.66364042 0.7036576 19.3125 3.25 C19.3125 3.91 19.3125 4.57 19.3125 5.25 C20.09625 5.53875 20.88 5.8275 21.6875 6.125 C24.3125 7.25 24.3125 7.25 26.3125 9.25 C28.60699164 15.21567827 27.69461171 21.70967218 25.28125 27.44140625 C21.99597207 33.57480819 13.84010797 39.73938155 7.3125 42.25 C4.0703125 42.515625 4.0703125 42.515625 0.4375 42.5 C-1.35300781 42.50773437 -1.35300781 42.50773437 -3.1796875 42.515625 C-6.66980337 42.25134006 -9.43403337 41.50362935 -12.6875 40.25 C-12.6875 39.59 -12.6875 38.93 -12.6875 38.25 C-13.44675781 38.00894531 -14.20601563 37.76789063 -14.98828125 37.51953125 C-18.10188308 36.05510203 -19.06721647 34.82122975 -20.875 31.9375 C-21.36355469 31.17824219 -21.85210937 30.41898437 -22.35546875 29.63671875 C-25.92672309 23.23778503 -26.63292196 17.51793134 -25.6875 10.25 C-23.95205399 6.2677712 -20.9452431 4.18514657 -17.0625 2.4375 C-11.0728212 0.33002042 -6.31157638 0.03293712 0 0 Z " fill="#443534" transform="translate(510.6875,326.75)"/>
<path d="M0 0 C2.78633115 4.17949673 4 6.93375326 4 12 C4.66 12 5.32 12 6 12 C7.33203125 13.79296875 7.33203125 13.79296875 8.8125 16.1875 C14.22888301 24.58223474 19.74817681 29.17359509 29.4375 31.4296875 C43.67748193 33.70933373 55.74195409 31.79903336 68 24 C70.73818595 21.91733052 73.38857641 19.77360031 76.00390625 17.5390625 C78 16 78 16 80 16 C80 15.34 80 14.68 80 14 C81.65 13.34 83.3 12.68 85 12 C85 11.34 85 10.68 85 10 C87.01171875 8.34375 87.01171875 8.34375 89.6875 6.5 C90.55761719 5.8915625 91.42773438 5.283125 92.32421875 4.65625 C95.93164761 2.42333053 98.72709319 1 103 1 C102.34 1.66 101.68 2.32 101 3 C100.835 4.175625 100.67 5.35125 100.5 6.5625 C100.335 7.696875 100.17 8.83125 100 10 C99.34 10.33 98.68 10.66 98 11 C96.94488927 12.85279415 96.94488927 12.85279415 95.9765625 15.11328125 C95.40421875 16.3672168 95.40421875 16.3672168 94.8203125 17.64648438 C94.02911925 19.41115559 93.24002475 21.17676943 92.453125 22.94335938 C90.437723 27.3495151 88.7471729 30.78931661 85 34 C84.505 34.99 84.505 34.99 84 36 C83.278125 36.268125 82.55625 36.53625 81.8125 36.8125 C78.77711674 37.93234998 78.77711674 37.93234998 75.9375 40.5625 C73.37328603 42.69025202 72.20997354 43.62961844 69 44 C69 44.66 69 45.32 69 46 C54.22851607 51.01335212 37.86871072 52.72922798 23 47 C23 46.34 23 45.68 23 45 C22.43667969 44.91363281 21.87335937 44.82726562 21.29296875 44.73828125 C18.32968453 43.78417441 16.63114391 42.25320094 14.3125 40.1875 C13.52488281 39.50042969 12.73726562 38.81335938 11.92578125 38.10546875 C9.9770012 35.97485527 9.37350564 34.81711878 9 32 C8.34 32 7.68 32 7 32 C3.87913009 24.88887499 1.48857086 18.91049218 1.95703125 11.0859375 C2.0128932 8.37409374 1.14306173 6.42900618 0 4 C0 2.68 0 1.36 0 0 Z " fill="#DFD5CB" transform="translate(531,546)"/>
<path d="M0 0 C8.68572311 7.28399258 8.68572311 7.28399258 12 11 C12 11.99 12 12.98 12 14 C11.34104736 14.03440186 10.68209473 14.06880371 10.00317383 14.10424805 C-10.9206951 15.28262013 -25.52632241 18.82368905 -41.65234375 33.03149414 C-51.84691565 42.00315361 -62.32614488 50.30437156 -76.5234375 49.51171875 C-79 49 -79 49 -81 47 C-80.25234375 47.06960938 -79.5046875 47.13921875 -78.734375 47.2109375 C-75.73858043 47.37562778 -72.97547812 47.3978837 -70 47 C-67.94928578 44.83535721 -67.24811552 43.58792933 -66 41 C-64.83656512 39.27518746 -63.64701394 37.56781868 -62.4375 35.875 C-61.85871094 35.04742188 -61.27992188 34.21984375 -60.68359375 33.3671875 C-60.12800781 32.58601562 -59.57242188 31.80484375 -59 31 C-58.49597656 30.23945312 -57.99195313 29.47890625 -57.47265625 28.6953125 C-56.98667969 28.13585937 -56.50070312 27.57640625 -56 27 C-55.01 27 -54.02 27 -53 27 C-52.5359375 26.071875 -52.5359375 26.071875 -52.0625 25.125 C-51.375 23.75 -50.6875 22.375 -50 21 C-49.34 21 -48.68 21 -48 21 C-48 20.34 -48 19.68 -48 19 C-41.04213529 12.52326423 -33.43909253 8.67422089 -24 8 C-24 7.34 -24 6.68 -24 6 C-16.01348818 4.54147036 -8.10036134 3.54576903 0 3 C0 2.01 0 1.02 0 0 Z " fill="#DFD5CC" transform="translate(644,515)"/>
<path d="M0 0 C7.02820928 5.39930502 10.72549784 8.93111206 12.22265625 17.9140625 C11.40679507 23.17183458 8.46691549 25.97989736 4.66015625 29.5390625 C3.76683594 30.38404297 3.76683594 30.38404297 2.85546875 31.24609375 C-1.90127555 34.04766379 -8.02430739 33.07805045 -13.33984375 32.5390625 C-18.69830865 30.24257754 -22.66051266 25.71166002 -25.33984375 20.5390625 C-25.80914092 17.66461736 -25.65390387 15.47029029 -25.33984375 12.5390625 C-24.67984375 12.5390625 -24.01984375 12.5390625 -23.33984375 12.5390625 C-23.31921875 11.8584375 -23.29859375 11.1778125 -23.27734375 10.4765625 C-21.85738263 6.02735098 -18.93940511 3.41871159 -15.33984375 0.5390625 C-10.28924674 -1.88101523 -4.98643361 -3.11339928 0 0 Z " fill="#493A37" transform="translate(303.33984375,339.4609375)"/>
<path d="M0 0 C4.43885947 2.26130577 7.59185046 5.39709906 11 9 C11.495 9.495 11.495 9.495 12 10 C12.15289263 12.24634554 12.22197467 14.49863174 12.25 16.75 C12.27578125 17.98234375 12.3015625 19.2146875 12.328125 20.484375 C11.81564956 25.97518334 9.00586006 29.23001822 5.5 33.3125 C4.9121875 34.00988281 4.324375 34.70726562 3.71875 35.42578125 C2 37 2 37 -1 37 C-2.83984375 34.98046875 -2.83984375 34.98046875 -4.9375 32.1875 C-8.9172568 27.09787703 -13.19111065 22.88414545 -18.18920898 18.79370117 C-20.7248535 16.62317628 -21.93174588 15.56643073 -22.33984375 12.1796875 C-22.22769531 11.46039063 -22.11554687 10.74109375 -22 10 C-21.34 9.67 -20.68 9.34 -20 9 C-19.608125 8.236875 -19.21625 7.47375 -18.8125 6.6875 C-14.2825907 -0.02926206 -7.61872947 -1.24876526 0 0 Z " fill="#F7F5F5" transform="translate(618,229)"/>
<path d="M0 0 C7.31534594 -0.50119717 11.05692752 1.43280103 16.65625 6.04296875 C19.00120691 8.92832725 19.58401198 10.66447268 19.5546875 14.37890625 C17.9296875 16.43359375 17.9296875 16.43359375 15.5546875 18.25390625 C11.01441218 21.9468518 7.27069155 25.8714416 3.5546875 30.37890625 C2.7709375 31.32765625 1.9871875 32.27640625 1.1796875 33.25390625 C-0.47230435 35.27616307 -0.47230435 35.27616307 -1.4453125 37.37890625 C-6.57147931 36.5001348 -9.21919061 33.24247873 -12.4453125 29.37890625 C-15.74036206 24.12742101 -15.95602813 19.42386561 -15.2890625 13.3984375 C-13.84908255 8.24517592 -10.61729267 4.63754011 -6.4453125 1.37890625 C-4.29027349 0.59840922 -2.26520561 0.35099831 0 0 Z " fill="#F7F6F5" transform="translate(406.4453125,228.62109375)"/>
<path d="M0 0 C3.0625 1.9375 3.0625 1.9375 5 5 C5.69144269 8.16006451 5.69701524 10.84057844 5 14 C3 17.0625 3 17.0625 0 19 C-4.11563229 19.85465751 -7.14456825 19.40041486 -10.9375 17.625 C-13.24698552 15.80540535 -13.87619333 14.90025134 -14.2734375 12.01171875 C-14.45781799 7.79224224 -14.37243334 5.58868496 -12.0625 1.9375 C-7.94141507 -0.669717 -4.75058323 -1.03945854 0 0 Z " fill="#493C3A" transform="translate(567,312)"/>
<path d="M0 0 C3.12809283 2.00197941 4.62325758 3.28599168 5.43359375 6.97265625 C5.65366257 10.54043862 5.3091602 12.59809173 3.125 15.4375 C-0.70958736 18.25704953 -3.22647884 18.39779343 -8 18 C-11.4375 16.625 -11.4375 16.625 -14 14 C-14.99025679 9.44935429 -14.79258469 5.51311622 -12.625 1.375 C-8.47131069 -0.80074202 -4.57516242 -0.83520736 0 0 Z " fill="#473936" transform="translate(464,313)"/>
<path d="M0 0 C0.33 1.32 0.66 2.64 1 4 C27.73 4.33 54.46 4.66 82 5 C82 5.33 82 5.66 82 6 C51.64 6 21.28 6 -10 6 C-9.67 5.01 -9.34 4.02 -9 3 C-2.88888889 0 -2.88888889 0 0 0 Z " fill="#D1C6C1" transform="translate(651,786)"/>
<path d="M0 0 C2.35171131 0.59861742 4.6859378 1.26924352 7 2 C7.495 2.99 7.495 2.99 8 4 C-23.02 4 -54.04 4 -86 4 C-86 3.67 -86 3.34 -86 3 C-57.29 3 -28.58 3 1 3 C0.505 1.515 0.505 1.515 0 0 Z " fill="#D1C8C2" transform="translate(374,788)"/>
<path d="M0 0 C2 1.375 2 1.375 4 3 C4 3.66 4 4.32 4 5 C0.88856433 6.03714522 -1.49468096 6.20031861 -4.76171875 6.31640625 C-5.87998047 6.35830078 -6.99824219 6.40019531 -8.15039062 6.44335938 C-9.90125977 6.50233398 -9.90125977 6.50233398 -11.6875 6.5625 C-12.86634766 6.60568359 -14.04519531 6.64886719 -15.25976562 6.69335938 C-18.17305883 6.79951176 -21.08643757 6.90156242 -24 7 C-24 6.67 -24 6.34 -24 6 C-16.01348818 4.54147036 -8.10036134 3.54576903 0 3 C0 2.01 0 1.02 0 0 Z " fill="#EDE7E0" transform="translate(644,515)"/>
<path d="M0 0 C1.55521173 0.00031721 3.11044535 0.0116478 4.66552734 0.03173828 C5.89316299 0.03598312 5.89316299 0.03598312 7.14559937 0.04031372 C9.76436877 0.05152546 12.38279848 0.07663149 15.00146484 0.10205078 C16.77489741 0.11207931 18.54833533 0.12120538 20.32177734 0.12939453 C24.6734711 0.151468 29.02491034 0.18600434 33.37646484 0.22705078 C33.37646484 0.55705078 33.37646484 0.88705078 33.37646484 1.22705078 C32.3779248 1.23639648 31.37938477 1.24574219 30.35058594 1.25537109 C26.62650843 1.29540823 22.90324518 1.36120344 19.1796875 1.43457031 C17.57172143 1.46270083 15.96361912 1.48395467 14.35546875 1.49804688 C12.03624117 1.51958769 9.71863789 1.5662895 7.39990234 1.61767578 C6.33079117 1.61951874 6.33079117 1.61951874 5.24008179 1.62139893 C-0.00678842 1.77349113 -2.6225722 3.08539177 -6.62353516 6.22705078 C-5.71468455 1.68279773 -4.92394497 0.30853448 0 0 Z " fill="#F4EFEC" transform="translate(637.62353515625,545.77294921875)"/>
<path d="M0 0 C0.92683594 0.00451172 1.85367188 0.00902344 2.80859375 0.01367188 C5.08079709 0.02538426 7.35286388 0.04178628 9.625 0.0625 C9.625 0.3925 9.625 0.7225 9.625 1.0625 C8.48804688 1.11148438 7.35109375 1.16046875 6.1796875 1.2109375 C-2.43343669 1.61649239 -10.84464904 2.25131874 -19.359375 3.66015625 C-22.40219021 4.06612771 -25.30916905 4.13134351 -28.375 4.0625 C-28.045 3.0725 -27.715 2.0825 -27.375 1.0625 C-26.65054687 1.07410156 -25.92609375 1.08570313 -25.1796875 1.09765625 C-24.21289062 1.10667969 -23.24609375 1.11570313 -22.25 1.125 C-20.82300781 1.14240234 -20.82300781 1.14240234 -19.3671875 1.16015625 C-16.40525468 1.13772118 -16.40525468 1.13772118 -13.65625 0.5625 C-9.09416308 -0.13267515 -4.60664209 -0.04271494 0 0 Z " fill="#C5BAB5" transform="translate(510.375,210.9375)"/>
<path d="M0 0 C0.56460937 0.23976563 1.12921875 0.47953125 1.7109375 0.7265625 C1.02386719 1.34144531 0.33679688 1.95632813 -0.37109375 2.58984375 C-1.72267578 3.80220703 -1.72267578 3.80220703 -3.1015625 5.0390625 C-3.99488281 5.83957031 -4.88820313 6.64007813 -5.80859375 7.46484375 C-7.24293634 8.77269314 -8.65305544 10.11063781 -9.98828125 11.51953125 C-11.2890625 12.7265625 -11.2890625 12.7265625 -13.2890625 12.7265625 C-11.93071347 8.56387999 -10.16784427 6.25942727 -6.9140625 3.3515625 C-6.14320313 2.64257812 -5.37234375 1.93359375 -4.578125 1.203125 C-2.2890625 -0.2734375 -2.2890625 -0.2734375 0 0 Z " fill="#CEC8C7" transform="translate(287.2890625,305.2734375)"/>
<path d="M0 0 C0 0.66 0 1.32 0 2 C-0.99 2 -1.98 2 -3 2 C-3.268125 2.61875 -3.53625 3.2375 -3.8125 3.875 C-5 6 -5 6 -8 8 C-8 7.34 -8 6.68 -8 6 C-8.66 6 -9.32 6 -10 6 C-10.33 6.99 -10.66 7.98 -11 9 C-13.6352539 10.42446157 -15.19404974 11.16845087 -18.16796875 10.546875 C-18.77253906 10.36640625 -19.37710938 10.1859375 -20 10 C-18.88625 9.46375 -17.7725 8.9275 -16.625 8.375 C-12.28987571 6.22292044 -8.2029715 3.73684286 -4.1015625 1.171875 C-2 0 -2 0 0 0 Z " fill="#C5BAB5" transform="translate(671,775)"/>
<path d="M0 0 C1.73776501 3.47553002 0.72877918 7.28135753 0 11 C-1.5625 14.5625 -1.5625 14.5625 -3 17 C-3.66 17 -4.32 17 -5 17 C-5.33 18.98 -5.66 20.96 -6 23 C-7.47192444 19.13148065 -6.48854933 16.47527292 -5.25 12.625 C-4.90453125 11.52414062 -4.5590625 10.42328125 -4.203125 9.2890625 C-3.01721142 6.04705201 -1.60503126 3.05324911 0 0 Z " fill="#615651" transform="translate(379,311)"/>
<path d="M0 0 C-1.35995337 3.1618916 -2.77859373 4.85608546 -5.5 6.9375 C-8.45424977 9.35126332 -9.99816527 11.215291 -11 15 C-11.66 15 -12.32 15 -13 15 C-11.77898641 9.04755874 -6.65342511 0 0 0 Z " fill="#C6C0BF" transform="translate(564,504)"/>
<path d="M0 0 C1.33332095 2.6666419 0.67102033 4.16680303 0 7 C-0.66 7 -1.32 7 -2 7 C-2.19335938 8.04800781 -2.38671875 9.09601563 -2.5859375 10.17578125 C-2.84859934 11.55475593 -3.11164 12.93365849 -3.375 14.3125 C-3.50132812 15.00279297 -3.62765625 15.69308594 -3.7578125 16.40429688 C-4.42114318 19.83703314 -5.03497639 22.05246458 -7 25 C-7.3290448 18.77615255 -6.4010407 14.3045004 -4.0625 8.5625 C-3.78470703 7.84384766 -3.50691406 7.12519531 -3.22070312 6.38476562 C-1.18174981 1.18174981 -1.18174981 1.18174981 0 0 Z " fill="#B7B0AD" transform="translate(273,318)"/>
<path d="M0 0 C0.33 0 0.66 0 1 0 C1.50744423 1.89385437 2.00564574 3.79018666 2.5 5.6875 C2.7784375 6.74324219 3.056875 7.79898437 3.34375 8.88671875 C3.9391715 11.71142672 4.12786492 14.12836708 4 17 C1.35247996 14.42215154 -0.94432065 12.08351902 -3 9 C-2.34 8.67 -1.68 8.34 -1 8 C-0.53476937 6.10466658 -0.53476937 6.10466658 -0.375 3.9375 C-0.25125 2.638125 -0.1275 1.33875 0 0 Z " fill="#C7BBB7" transform="translate(668,504)"/>
<path d="M0 0 C0.33 1.32 0.66 2.64 1 4 C2.65 4 4.3 4 6 4 C6 4.33 6 4.66 6 5 C1.05 5 -3.9 5 -9 5 C-9 4.34 -9 3.68 -9 3 C-2.25 0 -2.25 0 0 0 Z " fill="#DDD0CD" transform="translate(651,786)"/>
<path d="M0 0 C0.33 0.66 0.66 1.32 1 2 C-0.80288943 6.60738411 -2.88550128 9.25700085 -7 12 C-7.66 12 -8.32 12 -9 12 C-9 11.34 -9 10.68 -9 10 C-8.34 10 -7.68 10 -7 10 C-6.773125 9.278125 -6.54625 8.55625 -6.3125 7.8125 C-4.75168987 4.46790687 -2.6968713 2.48396041 0 0 Z " fill="#584A45" transform="translate(269,298)"/>
<path d="M0 0 C0.33 0 0.66 0 1 0 C1.05434116 2.5419589 1.0938339 5.08273682 1.125 7.625 C1.14175781 8.33785156 1.15851562 9.05070313 1.17578125 9.78515625 C1.21684602 14.2612164 0.69086567 17.77949278 -1 22 C-1.66 22 -2.32 22 -3 22 C-3 22.99 -3 23.98 -3 25 C-3.66 25 -4.32 25 -5 25 C-3 20 -3 20 -1.96875 17.8125 C-0.75472127 14.28790047 -0.5444947 10.87754085 -0.375 7.1875 C-0.31699219 6.14819336 -0.31699219 6.14819336 -0.2578125 5.08789062 C-0.16426432 3.39232985 -0.08107636 1.69620288 0 0 Z " fill="#BBB0AA" transform="translate(646,241)"/>
<path d="M0 0 C2.475 0.495 2.475 0.495 5 1 C5.66 4.3 6.32 7.6 7 11 C6.401875 10.236875 5.80375 9.47375 5.1875 8.6875 C3.1719574 6.08429709 3.1719574 6.08429709 1.25 4.375 C0 3 0 3 0 0 Z " fill="#EBE0DA" transform="translate(326,296)"/>
<path d="M0 0 C0 5.04876875 -2.93203038 8.84303291 -6.25 12.4375 C-6.8275 12.953125 -7.405 13.46875 -8 14 C-8.66 13.67 -9.32 13.34 -10 13 C-6.73279209 8.61105071 -3.45101522 4.24740335 0 0 Z " fill="#BFB3AD" transform="translate(749,703)"/>
<path d="M0 0 C0.33 1.32 0.66 2.64 1 4 C-2.02437339 5.5121867 -4.66241534 5.17263369 -8 5 C-10.4375 4 -10.4375 4 -12 3 C-10 2 -10 2 -6.5625 2.0625 C-2.89327313 2.318863 -2.89327313 2.318863 0 0 Z " fill="#BDB6B0" transform="translate(466,328)"/>
<path d="M0 0 C3.9341561 5.90123415 4.27522305 11.11942374 4 18 C2.36427347 15.03095016 1.51349012 12.32420253 0.875 9 C0.70742188 8.154375 0.53984375 7.30875 0.3671875 6.4375 C0 4 0 4 0 0 Z " fill="#958F8B" transform="translate(660,466)"/>
<path d="M0 0 C0 0.99 0 1.98 0 3 C-3.12317517 5.23083941 -6.4134946 6.66786942 -10 8 C-8.625 6 -8.625 6 -7 4 C-6.34 4 -5.68 4 -5 4 C-5 3.34 -5 2.68 -5 2 C-2 0 -2 0 0 0 Z " fill="#C0B3AD" transform="translate(616,558)"/>
<path d="M0 0 C0.33 0.66 0.66 1.32 1 2 C-2.0096463 8.48231511 -2.0096463 8.48231511 -5.75 10.4375 C-6.86375 10.7159375 -6.86375 10.7159375 -8 11 C-6.63629701 8.00779732 -5.05091917 5.70973471 -2.875 3.25 C-2.33617187 2.63640625 -1.79734375 2.0228125 -1.2421875 1.390625 C-0.62730469 0.70226562 -0.62730469 0.70226562 0 0 Z " fill="#635A59" transform="translate(414,253)"/>
<path d="M0 0 C-1.5830577 4.2742558 -4.50568404 6.26531794 -8 9 C-6.68994234 5.06982701 -4.75047804 0 0 0 Z " fill="#392B2C" transform="translate(550,497)"/>
<path d="M0 0 C0 3.12900213 -0.42451317 4.37418862 -2 7 C-2.99 7.495 -2.99 7.495 -4 8 C-4.66 7.34 -5.32 6.68 -6 6 C-4.02 4.02 -2.04 2.04 0 0 Z " fill="#574B44" transform="translate(706,727)"/>
<path d="M0 0 C1.35015859 4.05047576 0.62084998 6.7920168 0 11 C-2.09350689 7.5980513 -2.17942163 4.94727588 -2 1 C-1.34 0.67 -0.68 0.34 0 0 Z " fill="#D1C7C0" transform="translate(687,501)"/>
<path d="M0 0 C0.33 0 0.66 0 1 0 C1.33 3.96 1.66 7.92 2 12 C1.01 12.66 0.02 13.32 -1 14 C-0.67 9.38 -0.34 4.76 0 0 Z " fill="#685F5D" transform="translate(353,442)"/>
<path d="M0 0 C0.66 0.66 1.32 1.32 2 2 C1.96712417 4.72869407 1.43602229 7.2966618 1 10 C0.01 10 -0.98 10 -2 10 C-1.34 6.7 -0.68 3.4 0 0 Z " fill="#DAD3D2" transform="translate(315,354)"/>
<path d="M0 0 C2.35171131 0.59861742 4.6859378 1.26924352 7 2 C7.33 2.66 7.66 3.32 8 4 C5.69 4 3.38 4 1 4 C0.67 2.68 0.34 1.36 0 0 Z " fill="#CEC0BC" transform="translate(374,788)"/>
<path d="M0 0 C1.65 0 3.3 0 5 0 C5.33 0.99 5.66 1.98 6 3 C3.69 3 1.38 3 -1 3 C-0.67 2.01 -0.34 1.02 0 0 Z " fill="#FBF0EB" transform="translate(369,788)"/>
<path d="M0 0 C0 4.03223106 -1.64129026 5.80880447 -4 9 C-4.99 9.495 -4.99 9.495 -6 10 C-4.6302836 6.00499382 -2.74277578 3.19990508 0 0 Z " fill="#E7E3DE" transform="translate(586,545)"/>
<path d="M0 0 C0.99928333 2.698065 1.03624754 3.88010429 0.1875 6.6875 C-1 9 -1 9 -3 10 C-2.39009109 6.44219804 -1.4216319 3.3171411 0 0 Z " fill="#8F8284" transform="translate(536,511)"/>
<path d="M0 0 C-1.28519565 2.86697492 -2.57129254 4.97607712 -5 7 C-5.66 7 -6.32 7 -7 7 C-6.61402985 4.20171644 -6.19863427 3.1794116 -4.0625 1.25 C-2 0 -2 0 0 0 Z " fill="#3C2E2A" transform="translate(276,295)"/>
<path d="M0 0 C0.66 0.33 1.32 0.66 2 1 C1.01 2.485 1.01 2.485 0 4 C-3.625 4.6875 -3.625 4.6875 -7 5 C-4.63707344 2.47411298 -3.33537489 1.11179163 0 0 Z " fill="#B8AFAF" transform="translate(456,241)"/>
<path d="M0 0 C2.97 0.33 5.94 0.66 9 1 C5.00889681 2.9955516 3.30013434 3.19546065 -1 3 C-0.67 2.01 -0.34 1.02 0 0 Z " fill="#D6CBC6" transform="translate(483,212)"/>
<path d="M0 0 C0.33 0.99 0.66 1.98 1 3 C-1.97 5.475 -1.97 5.475 -5 8 C-5 7.01 -5 6.02 -5 5 C-4.34 5 -3.68 5 -3 5 C-2.5359375 4.0409375 -2.5359375 4.0409375 -2.0625 3.0625 C-1 1 -1 1 0 0 Z " fill="#BFB3AE" transform="translate(736,719)"/>
<path d="M0 0 C0.66 0.66 1.32 1.32 2 2 C1.625 5.625 1.625 5.625 1 9 C-0.61949011 6.42786866 -1.04408751 5.32330841 -0.625 2.25 C-0.41875 1.5075 -0.2125 0.765 0 0 Z " fill="#3A2E29" transform="translate(226,586)"/>
<path d="M0 0 C0.33 0 0.66 0 1 0 C0.88637738 1.4800841 0.75877092 2.95910074 0.625 4.4375 C0.52058594 5.67306641 0.52058594 5.67306641 0.4140625 6.93359375 C0.27742187 7.61550781 0.14078125 8.29742188 0 9 C-0.99 9.495 -0.99 9.495 -2 10 C-2.17942163 6.05272412 -2.09350689 3.4019487 0 0 Z " fill="#3C2B2B" transform="translate(536,516)"/>
<path d="M0 0 C0.33 0 0.66 0 1 0 C1 3.63 1 7.26 1 11 C-0.32 10.67 -1.64 10.34 -3 10 C-2.34 9.34 -1.68 8.68 -1 8 C-0.54188325 6.02764667 -0.54188325 6.02764667 -0.375 3.875 C-0.25125 2.59625 -0.1275 1.3175 0 0 Z " fill="#E2DBD7" transform="translate(668,504)"/>
<path d="M0 0 C0.99 0.495 0.99 0.495 2 1 C2 1.99 2 2.98 2 4 C2.66 4 3.32 4 4 4 C3.67 6.64 3.34 9.28 3 12 C2.67 12 2.34 12 2 12 C1.34 8.04 0.68 4.08 0 0 Z " fill="#CBBFB8" transform="translate(650,332)"/>
<path d="M0 0 C0.66 0.33 1.32 0.66 2 1 C0.54744301 4.82946843 -1.42895561 6.12050295 -5 8 C-3.8141763 4.62496331 -2.72426311 2.35277269 0 0 Z " fill="#79726F" transform="translate(490,331)"/>
<path d="M0 0 C0.66 0.33 1.32 0.66 2 1 C-0.12055614 4.1808342 -1.63050557 5.31525278 -5 7 C-5.66 6.67 -6.32 6.34 -7 6 C-4.69 4.02 -2.38 2.04 0 0 Z " fill="#C8C1C0" transform="translate(443,249)"/>
</svg>
